<?xml version="1.0" encoding="UTF-8" standalone="no"?><!DOCTYPE svg PUBLIC "-//W3C//DTD SVG 1.1//EN" "http://www.w3.org/Graphics/SVG/1.1/DTD/svg11.dtd"><svg width="100%" height="100%" viewBox="0 0 2134 2134" version="1.1" xmlns="http://www.w3.org/2000/svg" xmlns:xlink="http://www.w3.org/1999/xlink" xml:space="preserve" xmlns:serif="http://www.serif.com/" style="fill-rule:evenodd;clip-rule:evenodd;stroke-linejoin:round;stroke-miterlimit:2;"><path d="M1608.33,220.833c0,23.015 -18.652,41.667 -41.666,41.667c-23.015,0 -41.667,-18.652 -41.667,-41.667c0,-23.014 18.652,-41.666 41.667,-41.666c23.014,0 41.666,18.652 41.666,41.666Z" style="fill-rule:nonzero;"/><path d="M1925,0l-1716.67,0c-114.876,0 -208.333,93.457 -208.333,208.333l0,1716.67c0,114.876 93.457,208.333 208.333,208.333l1716.67,0c114.876,0 208.333,-93.457 208.333,-208.333l0,-1716.67c0,-114.876 -93.457,-208.333 -208.333,-208.333Zm125,1925c0,68.929 -56.071,125 -125,125l-1716.67,0c-68.929,0 -125,-56.071 -125,-125l0,-1716.67c0,-68.929 56.071,-125 125,-125l1716.67,0c68.929,0 125,56.071 125,125l0,1716.67Z" style="fill-rule:nonzero;"/><g><path d="M1043.98,1380.28l-42.009,0l0,-42.811c0.072,-59.074 47.045,-106.955 105.024,-107.028l63.014,0c34.8,0 63.015,-28.753 63.015,-64.217c0,-35.463 -28.215,-64.217 -63.015,-64.217l-315.072,0c-69.599,0 -126.029,-57.496 -126.029,-128.434c0,-70.927 56.43,-128.433 126.029,-128.433l420.096,0l0,42.811l-420.096,0c-46.399,0 -84.019,38.338 -84.019,85.622c0,47.296 37.62,85.623 84.019,85.623l315.072,0c57.999,0 105.024,47.922 105.024,107.028c0,59.116 -47.025,107.028 -105.024,107.028l-63.014,0c-34.8,0 -63.015,28.754 -63.015,64.217l0,42.811Z" style="fill-rule:nonzero;"/><path d="M961.08,1318.72l-41.681,-5.309c7.63,-60.977 43.261,-114.627 95.978,-144.509l20.389,37.46c-41.015,23.224 -68.737,64.938 -74.686,112.358Z" style="fill-rule:nonzero;"/><rect x="938.957" y="930.761" width="210.048" height="42.811" style="fill-rule:nonzero;"/><path d="M698.407,1116.28c-71.322,-81.254 -71.322,-204.159 0,-285.423l31.302,28.555c-57.045,65.001 -57.045,163.312 0,228.313l-31.302,28.555Z" style="fill-rule:nonzero;"/><path d="M1607.54,935.58l-26.051,33.718l71.63,57.465l0,83.615l-630.144,331.442l-630.144,-331.442l0,-83.636l630.144,-507.506l104.398,84.023l26.041,-33.561l-130.439,-105.042l-672.154,541.37l0,823.771l1344.31,0l0,-823.792l-87.588,-70.425Zm-1214.71,222.982l584.329,307.34l-584.329,307.361l0,-614.701Zm65.496,628.424l564.648,-297.003l564.647,297.003l-1129.3,0Zm1194.79,-13.723l-584.33,-307.361l584.33,-307.34l0,614.701Z" style="fill-rule:nonzero;"/><path d="M1327.15,833.986l153.065,264.979l206.119,-630.16l-618.421,210.074l259.237,155.107Zm89.209,-59.785l188.705,-192.347l-135.495,414.284l-111.753,-193.424l-188.868,-113.017l406.455,-138.07l-188.705,192.305l29.661,30.269Z" style="fill-rule:nonzero;"/></g><path d="M566.667,262.5l833.333,0c23.014,0 41.667,-18.652 41.667,-41.667c0,-23.014 -18.653,-41.666 -41.667,-41.666l-833.333,0c-23.015,0 -41.667,18.652 -41.667,41.666c0,23.015 18.652,41.667 41.667,41.667Z" style="fill-rule:nonzero;"/></svg>