<svg height="512pt" viewBox="0 -1 512 512" width="512pt" xmlns="http://www.w3.org/2000/svg"><path d="m264 342.199219h-16v-16c.027344-22.078125 17.917969-39.972657 40-40h24c13.253906 0 24-10.746094 24-24 0-13.253907-10.746094-24-24-24h-120c-26.507812 0-48-21.488281-48-48 0-26.507813 21.492188-48 48-48h160v16h-160c-17.671875 0-32 14.328125-32 32 0 17.675781 14.328125 32 32 32h120c22.089844 0 40 17.910156 40 40 0 22.09375-17.910156 40-40 40h-24c-13.253906 0-24 10.746093-24 24zm0 0"/><path d="m232.425781 319.191406-15.875-1.984375c2.90625-22.789062 16.476563-42.839843 36.554688-54.007812l7.765625 14c-15.621094 8.679687-26.179688 24.269531-28.445313 41.992187zm0 0"/><path d="m224 174.199219h80v16h-80zm0 0"/><path d="m132.382812 243.535156c-27.164062-30.367187-27.164062-76.300781 0-106.671875l11.921876 10.671875c-21.726563 24.292969-21.726563 61.035156 0 85.328125zm0 0"/><path d="m478.640625 176-9.921875 12.601562 27.28125 21.476563v31.25l-240 123.871094-240-123.871094v-31.257813l240-189.671874 39.761719 31.402343 9.917969-12.542969-49.679688-39.257812-256 202.328125v307.871094h512v-307.878907zm-462.640625 83.335938 222.550781 114.863281-222.550781 114.871093zm24.945312 234.863281 215.054688-111 215.054688 111zm455.054688-5.128907-222.550781-114.871093 222.550781-114.863281zm0 0"/><path d="m371.847656 138.03125 58.296875 99.03125 78.503907-235.511719-235.535157 78.511719zm33.976563-22.34375 71.871093-71.886719-51.605468 154.832031-42.5625-72.289062-71.933594-42.238281 154.804688-51.601563-71.871094 71.871094zm0 0"/></svg>