<?xml version="1.0" encoding="UTF-8" standalone="no"?><!DOCTYPE svg PUBLIC "-//W3C//DTD SVG 1.1//EN" "http://www.w3.org/Graphics/SVG/1.1/DTD/svg11.dtd"><svg width="100%" height="100%" viewBox="0 0 2400 2400" version="1.1" xmlns="http://www.w3.org/2000/svg" xmlns:xlink="http://www.w3.org/1999/xlink" xml:space="preserve" xmlns:serif="http://www.serif.com/" style="fill-rule:evenodd;clip-rule:evenodd;stroke-linejoin:round;stroke-miterlimit:2;"><clipPath id="_clip1"><rect x="0" y="0" width="2400" height="2400"/></clipPath><g clip-path="url(#_clip1)"><path d="M1808.81,248.36c0,25.883 -20.977,46.86 -46.86,46.86c-25.883,0 -46.86,-20.977 -46.86,-46.86c0,-25.883 20.977,-46.86 46.86,-46.86c25.883,0 46.86,20.977 46.86,46.86Z" style="fill-rule:nonzero;"/><path d="M2164.95,0l-1930.65,0c-129.195,0 -234.301,105.106 -234.301,234.301l0,1930.65c0,129.195 105.106,234.301 234.301,234.301l1930.65,0c129.196,0 234.302,-105.106 234.302,-234.301l0,-1930.65c0,-129.195 -105.106,-234.301 -234.302,-234.301Zm140.582,2164.95c0,77.521 -63.061,140.582 -140.582,140.582l-1930.65,0c-77.521,0 -140.581,-63.061 -140.581,-140.582l0,-1930.65c0,-77.521 63.06,-140.581 140.581,-140.581l1930.65,0c77.521,0 140.582,63.06 140.582,140.581l0,1930.65Z" style="fill-rule:nonzero;"/><g><g><path d="M836.257,974.47l0,108.353c0,13.883 11.256,25.139 25.139,25.139l677.211,0c13.887,0 25.14,-11.256 25.14,-25.139l0,-108.353c0,-13.884 -11.253,-25.14 -25.14,-25.14l-677.211,0c-13.883,0 -25.139,11.256 -25.139,25.14Zm50.279,25.14l626.931,0l0,58.073l-626.931,0l0,-58.073Z" style="fill-rule:nonzero;"/><path d="M1823.03,441.425l-1246.06,0c-13.884,0 -25.14,11.256 -25.14,25.139l0,343.32c0,13.884 11.256,25.14 25.14,25.14c13.883,0 25.139,-11.256 25.139,-25.14l0,-318.18l1195.79,0l0,1255.5c0,13.884 11.252,25.14 25.139,25.14c13.888,0 25.14,-11.256 25.14,-25.14l0,-1280.64c0,-13.883 -11.252,-25.139 -25.14,-25.139Z" style="fill-rule:nonzero;"/><path d="M1823.03,1839.68c-13.887,0 -25.139,11.256 -25.139,25.14l0,242.54l-1195.79,0l0,-1180.13c0,-13.884 -11.256,-25.14 -25.139,-25.14c-13.884,0 -25.14,11.256 -25.14,25.14l0,1205.27c0,13.884 11.256,25.14 25.14,25.14l1246.06,0c13.888,0 25.14,-11.256 25.14,-25.14l0,-267.679c0,-13.884 -11.252,-25.14 -25.14,-25.14Z" style="fill-rule:nonzero;"/><path d="M1061.17,620.373c22.106,0 43.425,6.51 61.653,18.822c11.504,7.776 27.134,4.749 34.904,-6.758c7.773,-11.504 4.75,-27.131 -6.757,-34.904c-26.572,-17.953 -57.621,-27.443 -89.8,-27.443c-88.546,0 -160.583,72.038 -160.583,160.58c0,88.546 72.037,160.584 160.583,160.584c35.136,0 66.621,-11.501 91.06,-33.262c4.79,-4.271 9.342,-8.967 13.529,-13.958c8.922,-10.639 7.531,-26.494 -3.108,-35.417c-10.639,-8.919 -26.494,-7.532 -35.417,3.107c-2.628,3.135 -5.474,6.071 -8.45,8.722c-15.295,13.619 -34.68,20.528 -57.614,20.528c-60.822,0 -110.304,-49.482 -110.304,-110.304c0.004,-60.815 49.482,-110.297 110.304,-110.297Z" style="fill-rule:nonzero;"/><path d="M1349.17,891.257l0.215,0c13.291,-0.091 25.093,-8.608 29.427,-21.359l88.449,-266.241c4.381,-13.177 -2.756,-27.406 -15.932,-31.783c-13.17,-4.381 -27.406,2.755 -31.78,15.932l-70.774,213.038l-74.233,-213.853c-4.549,-13.116 -18.888,-20.058 -31.991,-15.506c-13.117,4.552 -20.059,18.878 -15.507,31.994l92.673,266.992c4.431,12.456 16.247,20.786 29.453,20.786Z" style="fill-rule:nonzero;"/><path d="M1646.96,1213.44l-636.578,0c-13.884,0 -25.14,11.256 -25.14,25.14c0,13.884 11.256,25.14 25.14,25.14l636.578,0c13.887,0 25.14,-11.256 25.14,-25.14c0,-13.884 -11.256,-25.14 -25.14,-25.14Z" style="fill-rule:nonzero;"/><path d="M727.904,1238.58c0,13.884 11.256,25.14 25.14,25.14l135.44,0c13.884,0 25.14,-11.256 25.14,-25.14c0,-13.884 -11.256,-25.14 -25.14,-25.14l-135.44,0c-13.884,0 -25.14,11.256 -25.14,25.14Z" style="fill-rule:nonzero;"/><path d="M1646.96,1335.34l-636.578,0c-13.884,0 -25.14,11.256 -25.14,25.139c0,13.884 11.256,25.14 25.14,25.14l636.578,0c13.887,0 25.14,-11.256 25.14,-25.14c0,-13.883 -11.256,-25.139 -25.14,-25.139Z" style="fill-rule:nonzero;"/><path d="M753.044,1385.62l135.44,0c13.884,0 25.14,-11.256 25.14,-25.14c0,-13.883 -11.256,-25.139 -25.14,-25.139l-135.44,0c-13.884,0 -25.14,11.256 -25.14,25.139c0,13.884 11.256,25.14 25.14,25.14Z" style="fill-rule:nonzero;"/><path d="M1646.96,1457.24l-636.578,0c-13.884,0 -25.14,11.256 -25.14,25.14c0,13.883 11.256,25.139 25.14,25.139l636.578,0c13.887,0 25.14,-11.256 25.14,-25.139c0,-13.884 -11.256,-25.14 -25.14,-25.14Z" style="fill-rule:nonzero;"/><path d="M753.044,1507.52l135.44,0c13.884,0 25.14,-11.256 25.14,-25.139c0,-13.884 -11.256,-25.14 -25.14,-25.14l-135.44,0c-13.884,0 -25.14,11.256 -25.14,25.14c0,13.883 11.256,25.139 25.14,25.139Z" style="fill-rule:nonzero;"/><path d="M1646.96,1579.14l-636.578,0c-13.884,0 -25.14,11.256 -25.14,25.14c0,13.884 11.256,25.139 25.14,25.139l636.578,0c13.887,0 25.14,-11.255 25.14,-25.139c0,-13.884 -11.256,-25.14 -25.14,-25.14Z" style="fill-rule:nonzero;"/><path d="M753.044,1629.42l135.44,0c13.884,0 25.14,-11.255 25.14,-25.139c0,-13.884 -11.256,-25.14 -25.14,-25.14l-135.44,0c-13.884,0 -25.14,11.256 -25.14,25.14c0,13.884 11.256,25.139 25.14,25.139Z" style="fill-rule:nonzero;"/><path d="M1646.96,1701.03l-636.578,0c-13.884,0 -25.14,11.255 -25.14,25.139c0,13.884 11.256,25.14 25.14,25.14l636.578,0c13.887,0 25.14,-11.256 25.14,-25.14c0,-13.884 -11.256,-25.139 -25.14,-25.139Z" style="fill-rule:nonzero;"/><path d="M753.044,1751.31l135.44,0c13.884,0 25.14,-11.256 25.14,-25.14c0,-13.884 -11.256,-25.139 -25.14,-25.139l-135.44,0c-13.884,0 -25.14,11.255 -25.14,25.139c0,13.884 11.256,25.14 25.14,25.14Z" style="fill-rule:nonzero;"/><path d="M1646.96,1890.65l-270.884,0c-13.887,0 -25.14,11.256 -25.14,25.14c0,13.884 11.253,25.14 25.14,25.14l270.884,0c13.887,0 25.14,-11.256 25.14,-25.14c0,-13.884 -11.256,-25.14 -25.14,-25.14Z" style="fill-rule:nonzero;"/></g></g><path d="M637.301,295.22l937.207,0c25.883,0 46.861,-20.977 46.861,-46.86c0,-25.883 -20.978,-46.86 -46.861,-46.86l-937.207,0c-25.884,0 -46.861,20.977 -46.861,46.86c0,25.883 20.977,46.86 46.861,46.86Z" style="fill-rule:nonzero;"/></g></svg>