<?xml version="1.0" encoding="iso-8859-1"?>
<!-- Generator: Adobe Illustrator 19.0.0, SVG Export Plug-In . SVG Version: 6.00 Build 0)  -->
<svg version="1.1" id="Capa_1" xmlns="http://www.w3.org/2000/svg" xmlns:xlink="http://www.w3.org/1999/xlink" x="0px" y="0px"
	 viewBox="0 0 409.679 409.679" style="enable-background:new 0 0 409.679 409.679;" xml:space="preserve">
<path id="XMLID_61_" d="M233.745,173.873c-1.792,0-3.583-0.684-4.951-2.051c-2.733-2.734-2.732-7.167,0.002-9.899l1.395-1.395
	c2.734-2.732,7.166-2.731,9.899,0.001c2.733,2.734,2.732,7.167-0.002,9.899l-1.395,1.395
	C237.327,173.189,235.536,173.873,233.745,173.873z M235.139,200.033c11.609-8.924,28.201-9.658,40.601-0.978
	c7.471,5.231,12.461,13.087,14.054,22.118c1.592,9.032-0.412,18.119-5.644,25.589c-7.745,11.063-14.193,19.505-20.294,26.564
	c-11.512,13.323-19.782,18.846-28.545,19.061c-0.057,0.001-0.114,0.002-0.171,0.002s-0.114-0.001-0.171-0.002
	c-8.762-0.215-17.031-5.737-28.543-19.062l0,0.001c-6.104-7.063-12.554-15.505-20.296-26.565c-5.23-7.469-7.235-16.557-5.643-25.588
	c1.593-9.031,6.583-16.886,14.054-22.117C206.94,190.373,223.531,191.107,235.139,200.033z M214.131,206.899
	c-4.025,0-8.074,1.183-11.563,3.625c-4.406,3.086-7.353,7.731-8.296,13.08s0.237,10.721,3.323,15.127
	c7.464,10.662,13.635,18.746,19.421,25.441l0,0.001c8.066,9.336,13.997,13.988,18.121,14.211
	c4.125-0.223,10.057-4.875,18.124-14.211c5.783-6.692,11.954-14.776,19.42-25.441c3.086-4.407,4.267-9.779,3.324-15.128
	s-3.889-9.994-8.296-13.079c-8.564-5.996-20.506-4.398-27.189,3.641c-1.33,1.6-3.302,2.524-5.382,2.524c0,0,0,0,0,0
	c-2.08,0-4.053-0.926-5.382-2.525C225.795,209.402,219.988,206.899,214.131,206.899z M287.582,296.706l1.395,1.395
	c1.367,1.367,3.157,2.05,4.949,2.05s3.584-0.684,4.951-2.051c2.733-2.734,2.732-7.167-0.002-9.899l-1.395-1.395
	c-2.733-2.734-7.166-2.732-9.899,0.001C284.847,289.541,284.847,293.973,287.582,296.706z M212.259,94.8
	c7.529-1.153,15.228-1.738,22.881-1.738c72.506,0,134.419,51.708,147.216,122.95c0.608,3.387,3.557,5.764,6.881,5.764
	c0.411,0,0.828-0.036,1.246-0.111c3.805-0.684,6.335-4.322,5.652-8.127C382.139,135.617,314.431,79.062,235.14,79.062
	c-8.361,0-16.772,0.64-25.001,1.9c-3.821,0.585-6.445,4.157-5.859,7.979C204.866,92.763,208.443,95.392,212.259,94.8z
	 M172.233,264.122c-2.733-2.733-7.166-2.732-9.899,0.001c-2.733,2.734-2.732,7.167,0.002,9.899l1.395,1.395
	c1.367,1.367,3.158,2.05,4.949,2.05c1.792,0,3.584-0.684,4.951-2.051c2.733-2.734,2.732-7.167-0.002-9.899L172.233,264.122z
	 M390.721,261.765c-3.812-0.636-7.421,1.937-8.059,5.749c-12.092,72.258-74.134,124.703-147.522,124.703
	c-82.477,0-149.576-67.101-149.576-149.579c0-19.451,3.678-38.372,10.932-56.239c1.454-3.582-0.271-7.664-3.853-9.119
	c-3.582-1.451-7.665,0.271-9.119,3.854c-7.936,19.547-11.96,40.24-11.96,61.505c0,90.198,73.38,163.579,163.576,163.579
	c38.934,0,76.655-13.911,106.214-39.17c29.23-24.979,48.804-59.506,55.115-97.223C397.108,266.012,394.534,262.404,390.721,261.765z
	 M402.679,235.638H355.59c-3.64-63.279-56.274-113.649-120.45-113.649c-13.988,0-27.701,2.375-40.756,7.059
	c-3.639,1.306-5.531,5.313-4.225,8.952s5.312,5.53,8.953,4.226c11.535-4.138,23.656-6.236,36.029-6.236
	c58.768,0,106.586,47.782,106.65,106.534c0,0.038-0.001,0.077-0.001,0.115s0,0.077,0.001,0.115
	c-0.064,58.754-47.883,106.536-106.65,106.536c-58.807,0-106.649-47.844-106.649-106.651c0-19.952,5.542-39.406,16.026-56.259
	c2.042-3.282,1.037-7.599-2.246-9.641c-3.284-2.043-7.599-1.036-9.642,2.246c-11.866,19.073-18.139,41.085-18.139,63.653
	c0,66.527,54.123,120.651,120.649,120.651c64.176,0,116.81-50.371,120.45-113.651h47.089c3.866,0,7-3.134,7-7
	S406.545,235.638,402.679,235.638z M172.656,87.992v7.049c0,6.827-5.555,12.382-12.382,12.382H99.218
	c-14.547,0-26.383,11.836-26.383,26.384c0,14.547,11.835,26.382,26.383,26.382h61.922c6.565,0,11.515,5.323,11.515,12.382v7.049
	c0,3.866,3.134,7,7,7s7-3.134,7-7v-7.049c0-14.794-11.208-26.382-25.515-26.382H99.218c-6.828,0-12.383-5.555-12.383-12.383
	s5.555-12.383,12.383-12.383h61.056c14.547,0,26.382-11.835,26.382-26.382v-7.049c0-14.794-11.208-26.382-25.515-26.382H26.383
	C19.555,61.61,14,56.054,14,49.226c0-6.827,5.555-12.382,12.383-12.382h133.891c14.547,0,26.382-11.835,26.382-26.383
	c0-3.866-3.134-7-7-7s-7,3.134-7,7c0,6.828-5.555,12.383-12.382,12.383H26.383C11.835,22.844,0,34.679,0,49.227
	S11.835,75.61,26.383,75.61h134.757C167.706,75.61,172.656,80.933,172.656,87.992z M190.277,298.5l-1.395,1.395
	c-2.734,2.732-2.735,7.165-0.002,9.899c1.367,1.367,3.159,2.051,4.951,2.051c1.791,0,3.582-0.684,4.949-2.05l1.395-1.395
	c2.734-2.732,2.735-7.165,0.002-9.899C197.444,295.768,193.012,295.767,190.277,298.5z M295.088,194.987
	c1.367,1.367,3.157,2.05,4.949,2.05s3.584-0.684,4.951-2.051c2.733-2.734,2.732-7.167-0.002-9.899l-1.395-1.395
	c-2.733-2.734-7.166-2.732-9.899,0.001c-2.733,2.734-2.732,7.167,0.002,9.899L295.088,194.987z"/>
<g>
</g>
<g>
</g>
<g>
</g>
<g>
</g>
<g>
</g>
<g>
</g>
<g>
</g>
<g>
</g>
<g>
</g>
<g>
</g>
<g>
</g>
<g>
</g>
<g>
</g>
<g>
</g>
<g>
</g>
</svg>
