<?xml version="1.0" encoding="iso-8859-1"?>
<!-- Generator: Adobe Illustrator 19.0.0, SVG Export Plug-In . SVG Version: 6.00 Build 0)  -->
<svg version="1.1" id="Capa_1" xmlns="http://www.w3.org/2000/svg" xmlns:xlink="http://www.w3.org/1999/xlink" x="0px" y="0px"
	 viewBox="0 0 512 512" style="enable-background:new 0 0 512 512;" xml:space="preserve">
<g>
	<g>
		<path d="M309.033,348.82c-5.857-5.858-15.355-5.858-21.213-0.001c-8.5,8.5-19.8,13.181-31.82,13.181
			c-12.02,0-23.32-4.681-31.82-13.18c-5.857-5.858-15.355-5.858-21.213,0c-5.858,5.858-5.858,15.355,0,21.213
			C217.133,384.199,235.967,392,256,392s38.867-7.801,53.033-21.967C314.89,364.175,314.891,354.678,309.033,348.82z"/>
	</g>
</g>
<g>
	<g>
		<circle cx="196" cy="256" r="15"/>
	</g>
</g>
<g>
	<g>
		<circle cx="316" cy="256" r="15"/>
	</g>
</g>
<g>
	<g>
		<path d="M496.674,301.926C506.433,288.837,512,272.511,512,256c0-24.482-12.161-47.302-32.2-61.264C464.466,84.811,369.26,0,256,0
			C142.624,0,47.519,84.926,32.2,194.736C12.161,208.699,0,231.519,0,256c0,16.511,5.567,32.837,15.327,45.926
			C5.465,314.868,0,330.669,0,347c0,16.3,5.444,32.071,15.27,45C5.444,404.929,0,420.7,0,437c0,41.355,33.645,75,75,75h362.001
			C478.355,512,512,478.355,512,437c0-16.3-5.443-32.071-15.27-45c9.826-12.928,15.27-28.7,15.27-45
			C512,330.668,506.535,314.868,496.674,301.926z M466.436,313.294C476.473,322.067,482,334.037,482,347
			s-5.527,24.933-15.564,33.707c-6.836,5.975-6.83,16.617,0,22.587C476.473,412.067,482,424.038,482,437
			c0,24.813-20.187,45-44.999,45H75c-24.813,0-45-20.187-45-45c0-12.962,5.528-24.933,15.565-33.707
			c6.835-5.975,6.832-16.615,0-22.587C35.528,371.933,30,359.962,30,347c0-12.962,5.528-24.933,15.565-33.706
			c6.837-5.977,6.829-16.618,0-22.587C35.818,282.187,30,269.213,30,256c0-16.202,8.989-31.224,23.459-39.204
			c4.292-2.367,7.157-6.682,7.673-11.557C71.53,106.974,157.126,30,256,30s184.47,76.974,194.867,175.24
			c0.516,4.875,3.381,9.19,7.674,11.557C473.011,224.776,482,239.798,482,256c0,13.213-5.818,26.188-15.564,34.706
			C459.601,296.68,459.604,307.322,466.436,313.294z"/>
	</g>
</g>
<g>
	<g>
		<path d="M417.699,223.016c-1.419-6.992-7.566-12.016-14.7-12.016c-61.845,0-115.641-42.415-130.823-103.144l-1.624-6.494
			C268.883,94.684,262.883,90,256,90s-12.883,4.684-14.552,11.362l-1.624,6.494C224.642,168.585,170.845,211,109,211
			c-7.134,0-13.281,5.024-14.7,12.016C92.11,233.804,91,244.901,91,256v61c0,74.439,60.561,135,135,135h60
			c74.439,0,135-60.561,135-135v-61C421,244.903,419.89,233.805,417.699,223.016z M391,317c0,57.897-47.103,105-105,105h-60
			c-57.897,0-105-47.103-105-105v-61c0-5.192,0.296-10.381,0.883-15.521c32.049-2.59,63.113-14.771,88.64-34.949
			c19.05-15.06,34.578-34.216,45.478-55.759c10.899,21.543,26.428,40.699,45.478,55.759c25.526,20.179,56.591,32.36,88.64,34.949
			C390.704,245.619,391,250.808,391,256V317z"/>
	</g>
</g>
<g>
</g>
<g>
</g>
<g>
</g>
<g>
</g>
<g>
</g>
<g>
</g>
<g>
</g>
<g>
</g>
<g>
</g>
<g>
</g>
<g>
</g>
<g>
</g>
<g>
</g>
<g>
</g>
<g>
</g>
</svg>
