<svg height="512pt" viewBox="-75 0 512 512.00042" width="512pt" xmlns="http://www.w3.org/2000/svg"><path d="m276.351562 295.113281c23.996094-21.34375 38.707032-51.21875 40.992188-83.253906h.453125c19.5 0 35.308594-15.808594 35.308594-35.308594 0-19.503906-15.808594-35.3125-35.308594-35.3125v-17.65625c.078125-68.171875-55.121094-123.4999998-123.292969-123.582031-28.046875-.03125-55.269531 9.488281-77.183594 26.992188-.824218-.296876-1.6875-.46875-2.5625-.511719-63.347656.074219-114.6835932 51.410156-114.757812 114.757812v150.070313c0 4.875 3.953125 8.828125 8.828125 8.828125 29.941406-.050781 58.679687-11.804688 80.074219-32.75 6.34375 10.324219 14.160156 19.667969 23.207031 27.726562-50.335937 13.386719-85.4375 58.871094-85.625 110.957031v105.929688h17.652344v-105.929688c.101562-32.777343 16.691406-63.304687 44.140625-81.214843v77.859375c-23.542969 27.285156-23.542969 67.699218 0 94.984375v14.300781h17.65625v-17.65625c-.003906-2.339844-.933594-4.585938-2.589844-6.238281-9.417969-10.410157-14.769531-23.863281-15.066406-37.898438.382812-14.015625 5.722656-27.445312 15.066406-37.898437 1.65625-1.652344 2.585938-3.898438 2.589844-6.238282v-90.398437c5.707031-2.246094 11.621094-3.933594 17.652344-5.046875v7.167969c0 39.003906 31.621093 70.621093 70.621093 70.621093 39.003907 0 70.621094-31.617187 70.621094-70.621093v-7.179688c6.035156 1.117188 11.949219 2.8125 17.65625 5.058594v90.394531c0 2.34375.929687 4.585938 2.585937 6.242188 9.421876 10.410156 14.769532 23.863281 15.070313 37.898437-.382813 14.015625-5.722656 27.445313-15.070313 37.894531-1.65625 1.65625-2.585937 3.902344-2.585937 6.242188v17.65625h17.65625v-14.300781c23.539063-27.285157 23.539063-67.699219 0-94.984375v-77.859375c27.445313 17.914062 44.035156 48.4375 44.136719 81.214843v105.929688h17.65625v-105.929688c-.179688-52.074218-35.261719-97.558593-85.582032-110.957031zm-2.695312-145.046875h-61.792969c-4.875 0-8.828125 3.953125-8.828125 8.828125v17.65625h-17.65625v-17.65625c0-4.875-3.949218-8.828125-8.824218-8.828125h-61.796876c-4.875 0-8.824218 3.953125-8.824218 8.828125v5.171875l-17.65625-17.652344v-5.175781h8.828125c21.699219-.007812 41.804687-11.402343 52.964843-30.011719 11.160157 18.609376 31.265626 30.003907 52.964844 30.011719h8.828125c4.875 0 8.828125-3.953125 8.828125-8.828125v-9.710937c11.613282 11.878906 27.527344 18.5625 44.136719 18.539062h35.3125v5.175781l-17.65625 17.652344v-5.171875c0-4.875-3.953125-8.828125-8.828125-8.828125zm-8.828125 17.65625v35.308594h-44.136719v-35.308594zm-97.101563 0v35.308594h-44.140624v-35.308594zm167.722657 8.828125c0 9.75-7.902344 17.652344-17.652344 17.652344v-35.308594c9.75 0 17.652344 7.90625 17.652344 17.65625zm-35.308594-52.96875h-35.3125c-24.363281-.027343-44.109375-19.773437-44.136719-44.136719 0-4.875-3.953125-8.828124-8.828125-8.828124s-8.828125 3.953124-8.828125 8.828124v44.136719c-24.363281-.027343-44.109375-19.773437-44.136718-44.136719 0-4.875-3.953126-8.828124-8.828126-8.828124s-8.828124 3.953124-8.828124 8.828124c0 24.378907-19.761719 44.136719-44.136719 44.136719h-8.828125c0-58.503906 47.425781-105.929687 105.929687-105.929687 58.507813 0 105.933594 47.425781 105.933594 105.929687zm-282.484375 158.492188v-140.835938c.082031-47.277343 34.171875-87.636719 80.773438-95.621093-18.003907 21.992187-27.828126 49.546874-27.808594 77.964843v17.65625c-19.5 0-35.308594 15.808594-35.308594 35.3125 0 19.5 15.808594 35.308594 35.308594 35.308594h.449218c.914063 13.464844 4.042969 26.6875 9.261719 39.132813-16.308593 17.785156-38.648437 28.863281-62.675781 31.082031zm35.308594-105.523438c0-9.75 7.90625-17.65625 17.65625-17.65625v35.308594c-9.75 0-17.65625-7.902344-17.65625-17.652344zm35.3125 26.480469v-31.65625l17.65625 17.65625v22.828125c0 4.875 3.949218 8.828125 8.824218 8.828125h61.796876c4.875 0 8.824218-3.953125 8.824218-8.828125v-17.65625h17.65625v17.65625c0 4.875 3.953125 8.828125 8.828125 8.828125h61.792969c4.875 0 8.828125-3.953125 8.828125-8.828125v-22.828125l17.65625-17.65625v31.65625c0 58.507812-47.425781 105.933594-105.933594 105.933594-58.503906 0-105.929687-47.425782-105.929687-105.933594zm105.929687 167.726562c-29.238281-.027343-52.933593-23.726562-52.964843-52.964843v-3.265625c33.46875 16.125 72.460937 16.125 105.933593 0v3.265625c-.03125 29.238281-23.726562 52.9375-52.96875 52.964843zm0 0"/><path d="m158.898438 185.378906c0 4.875-3.953126 8.824219-8.828126 8.824219s-8.828124-3.949219-8.828124-8.824219c0-4.878906 3.953124-8.828125 8.828124-8.828125s8.828126 3.949219 8.828126 8.828125zm0 0"/><path d="m247.175781 185.378906c0 4.875-3.953125 8.824219-8.828125 8.824219s-8.828125-3.949219-8.828125-8.824219c0-4.878906 3.953125-8.828125 8.828125-8.828125s8.828125 3.949219 8.828125 8.828125zm0 0"/><path d="m185.378906 291.308594h17.65625c4.875 0 8.828125-3.953125 8.828125-8.828125s-3.953125-8.828125-8.828125-8.828125h-17.65625c-4.875 0-8.824218 3.953125-8.824218 8.828125s3.949218 8.828125 8.824218 8.828125zm0 0"/></svg>