<svg id="Capa_1" enable-background="new 0 0 512 512" height="512" viewBox="0 0 512 512" width="512" xmlns="http://www.w3.org/2000/svg"><circle cx="226" cy="226" r="15"/><circle cx="346" cy="226" r="15"/><path d="m316 241c-8.284 0-15 6.716-15 15 0 8.271-6.729 15-15 15s-15-6.729-15-15c0-8.284-6.716-15-15-15s-15 6.716-15 15c0 24.813 20.187 45 45 45s45-20.187 45-45c0-8.284-6.716-15-15-15z"/><path d="m46 361h29.921c43.293 0 80.704-25.04 98.272-61.736 14.645 22.549 35.231 40.46 59.71 51.075l-2.267 11.661h-5.636c-73.941 0-135 60.095-135 135 0 8.284 6.716 15 15 15h360c8.284 0 15-6.716 15-15 0-74.349-60.492-135-135-135h-5.636l-2.21-11.366c34.246-14.371 62.106-42.948 75.098-79.634h7.748c33.084 0 60-26.916 60-60 0-22.224-12.155-41.651-30.158-52.019-3.669-88.289-76.198-158.981-164.842-158.981-86.029 0-156.878 66.584-164.338 151.216-23.325-1.05-45.781 7.936-62.465 25.595-21.016 22.245-27.786 52.858-18.108 81.89 1.252 8.891 24.842 46.154-5.696 76.692-4.29 4.29-5.573 10.742-3.252 16.347 2.323 5.605 7.792 9.26 13.859 9.26zm105 121h-28.932c3.242-22.569 13.693-42.839 28.932-58.405zm270-58.405c15.238 15.566 25.689 35.836 28.932 58.405h-28.932zm-60.769 18.148 15.181-45.545c5.387 1.574 10.595 3.57 15.588 5.948v79.854h-210v-79.854c4.993-2.378 10.201-4.374 15.588-5.948l15.182 45.545c2.042 6.126 7.774 10.257 14.23 10.257h120c6.456 0 12.189-4.132 14.231-10.257zm-15.043-49.743-10 30h-98.377l-10-30h17.189c7.18 0 13.354-5.088 14.724-12.136l4.056-20.855c3.306.581 6.643 1.039 10.008 1.36 12.317 1.175 24.482.735 36.441-1.315l4.047 20.811c1.371 7.047 7.544 12.135 14.724 12.135zm45.812-166c0 60.458-51.735 110.57-115.364 104.503-53.067-5.061-94.636-53.231-94.636-109.663v-39.84h7.918c38.165 0 73.851-17.609 97.082-47.133 23.272 29.576 58.981 47.133 97.082 47.133h7.918zm30-45c16.542 0 30 13.458 30 30s-13.458 30-30 30h-.841c.557-4.958.841-9.967.841-15zm-135-151c69.407 0 126.739 53.052 134.175 121.01-8.452 0-28.755 0-37.093 0-35.659 0-67.719-19.823-83.666-51.718-2.54-5.082-7.734-8.292-13.416-8.292s-10.875 3.21-13.417 8.292c-15.947 31.895-48.006 51.718-83.666 51.718-8.329 0-28.655 0-37.093 0 7.437-67.958 64.769-121.01 134.176-121.01zm-135 151v39.839c0 6.78.477 13.515 1.415 20.161h-1.415c-16.542 0-30-13.458-30-30s13.458-30 30-30zm-69.995 16.414c4.542-4.807 9.759-8.599 15.406-11.306-3.474 7.586-5.411 16.017-5.411 24.892 0 33.084 26.916 60 60 60h1.584c-8.477 34.665-39.595 60-76.664 60h-1.762c17.239-39.214-2.147-69.624-4.609-81.785-6.121-18.365-1.839-37.73 11.456-51.801z"/></svg>