<?xml version="1.0" encoding="iso-8859-1"?>
<!-- Generator: Adobe Illustrator 19.0.0, SVG Export Plug-In . SVG Version: 6.00 Build 0)  -->
<svg version="1.1" id="Layer_1" xmlns="http://www.w3.org/2000/svg" xmlns:xlink="http://www.w3.org/1999/xlink" x="0px" y="0px"
	 viewBox="0 0 512 512" style="enable-background:new 0 0 512 512;" xml:space="preserve">
<g>
	<g>
		<path d="M421.412,184.36c0-14.341-8.646-26.694-20.998-32.145l15.336-21.039c6.007-8.241,7.126-18.726,2.993-28.049
			c-4.133-9.323-12.655-15.535-22.796-16.616c-4.69-0.5-8.902,2.898-9.403,7.59c-0.5,4.693,2.898,8.903,7.59,9.403
			c5.762,0.614,8.202,4.784,8.985,6.549c0.783,1.765,2.233,6.373-1.179,11.055l-23.091,31.676c-0.005,0.007-0.01,0.014-0.015,0.021
			c-3.412,4.677-8.24,4.708-10.161,4.503c-1.92-0.205-6.635-1.253-8.984-6.549l-16.94-38.201c4.349-3.541,7.767-8.177,9.84-13.484
			l12.444,1.327c0.309,0.033,0.613,0.049,0.916,0.049c4.312,0,8.019-3.255,8.487-7.639c0.5-4.693-2.898-8.903-7.591-9.403
			l-12.433-1.326c-2.478-15.563-15.989-27.497-32.238-27.497c-1.684,0-3.339,0.129-4.956,0.376l-16.936-38.183
			c-4.135-9.321-12.656-15.531-22.796-16.613c-10.148-1.081-19.78,3.194-25.785,11.435l-23.1,31.697
			c-6.007,8.242-7.124,18.727-2.99,28.049c4.135,9.322,12.657,15.532,22.797,16.613l41.526,4.425
			c0.581,3.649,1.768,7.099,3.456,10.243c-27.597,27.589-75.109,55.228-148.296,38.032c9.64-32.99,33.665-60.442,65.943-74.093
			c4.346-1.839,6.38-6.852,4.541-11.198c-1.839-4.346-6.851-6.379-11.198-4.541c-41.329,17.48-70.879,54.668-78.857,98.409
			c-19.281,0.103-34.936,15.816-34.936,35.121c0,16.595,11.427,30.526,27,34.186c-2.774,36.268,13.52,71.709,43.072,93.179
			l11.471,8.334c-32.36,12.778-54.553,44.379-54.553,80.225v23.128c0,4.719,3.826,8.545,8.545,8.545
			c4.719,0,8.545-3.826,8.545-8.545V400.28c0-27.787,16.624-52.396,41.165-63.258c5.518,39.322,39.36,69.681,80.178,69.681
			c32.618,0,61.906-19.415,74.615-49.461c1.839-4.346-0.195-9.361-4.54-11.198c-4.345-1.84-9.361,0.194-11.198,4.54
			c-10.029,23.709-33.138,39.029-58.876,39.029c-32.026,0-58.618-23.687-63.192-54.527l16.436,11.941
			c13.982,10.158,30.367,15.237,46.751,15.237c16.386,0,32.771-5.079,46.751-15.237l19.803-14.387
			c31.805,6.707,54.785,34.973,54.785,67.64v94.63h-33.239v-78.044c0-4.719-3.825-8.545-8.545-8.545s-8.545,3.826-8.545,8.545
			v78.044H184.996v-78.044c0-4.719-3.826-8.545-8.545-8.545c-4.719,0-8.545,3.826-8.545,8.545v78.044h-33.239v-39.601
			c0-4.719-3.826-8.545-8.545-8.545c-4.719,0-8.545,3.826-8.545,8.545v48.146c0,4.719,3.826,8.545,8.545,8.545h259.767
			c4.72,0,8.545-3.826,8.545-8.545V400.28c0-35.846-22.193-67.447-54.553-80.225l11.472-8.334
			c29.553-21.471,45.846-56.912,43.072-93.18C409.99,214.873,421.412,200.948,421.412,184.36z M119.436,201.271
			c-6.896-2.543-11.758-9.158-11.758-16.916c0-9.118,6.807-16.657,15.602-17.852L119.436,201.271z M322.176,71.675
			c8.579,0,15.559,6.979,15.559,15.559c0,8.579-6.979,15.559-15.559,15.559c-8.579,0-15.559-6.979-15.559-15.559
			C306.617,78.655,313.596,71.675,322.176,71.675z M291.758,75.393l-41.539-4.426c-5.76-0.614-8.202-4.784-8.985-6.548
			c-0.783-1.765-2.233-6.373,1.178-11.055l23.1-31.697c3.412-4.683,8.243-4.711,10.163-4.507c1.92,0.204,6.635,1.252,8.985,6.548
			l16.944,38.198C297.253,65.446,293.832,70.083,291.758,75.393z M341.307,297.895l-48.595,35.307
			c-21.956,15.951-51.458,15.951-73.414,0l-48.595-35.305c-25.554-18.565-39.273-49.603-35.801-80.998l6.254-56.568
			c0.109-0.988,0.243-1.97,0.377-2.951c17.113,4.004,32.969,5.775,47.62,5.775c40.641,0,72.025-13.575,95.386-30.534
			c7.056,8.951,20.933,23.484,42.253,32.748c1.11,0.482,2.264,0.71,3.401,0.71c3.299,0,6.443-1.923,7.842-5.142
			c1.88-4.328-0.104-9.362-4.432-11.243c-18.098-7.864-29.961-20.477-35.735-27.803c2.541-2.262,4.96-4.544,7.254-6.827
			c4.966,3.055,10.805,4.819,17.051,4.819c1.687,0,3.344-0.129,4.963-0.377l16.93,38.179c4.133,9.322,12.653,15.532,22.793,16.615
			c1.038,0.111,2.07,0.165,3.096,0.165c0.824,0,1.638-0.048,2.45-0.117l4.703,42.548
			C380.58,248.292,366.861,279.329,341.307,297.895z M392.576,201.268l-3.772-34.114c0.197-0.18,0.398-0.357,0.589-0.542
			c8.467,1.482,14.929,8.866,14.929,17.747C404.322,192.11,399.466,198.719,392.576,201.268z"/>
	</g>
</g>
<g>
	<g>
		<path d="M332.302,207.523c-6.834-6.833-15.918-10.595-25.58-10.595c-9.661,0-18.747,3.762-25.578,10.595
			c-3.338,3.337-3.338,8.747-0.001,12.084s8.748,3.338,12.084,0c3.605-3.605,8.398-5.59,13.495-5.59
			c5.099,0,9.891,1.985,13.494,5.59c1.669,1.669,3.855,2.503,6.043,2.503c2.186,0,4.374-0.834,6.042-2.503
			C335.639,216.269,335.639,210.86,332.302,207.523z"/>
	</g>
</g>
<g>
	<g>
		<path d="M230.862,207.523c-14.104-14.105-37.053-14.105-51.157,0c-3.337,3.337-3.337,8.748,0,12.084
			c3.337,3.337,8.748,3.337,12.084,0c3.605-3.605,8.397-5.59,13.494-5.59s9.891,1.985,13.494,5.59
			c1.668,1.668,3.855,2.503,6.042,2.503c2.186,0,4.374-0.834,6.042-2.503C234.199,216.27,234.199,210.86,230.862,207.523z"/>
	</g>
</g>
<g>
	<g>
		<path d="M284.198,277.498c-3.335-3.337-8.747-3.338-12.084,0c-4.303,4.304-10.026,6.674-16.112,6.674
			c-6.086,0-11.809-2.371-16.113-6.674c-3.337-3.337-8.748-3.337-12.084,0c-3.337,3.337-3.337,8.748,0,12.084
			c7.532,7.532,17.546,11.679,28.197,11.679c10.652,0,20.665-4.148,28.197-11.679C287.537,286.245,287.537,280.834,284.198,277.498z
			"/>
	</g>
</g>
<g>
	<g>
		<path d="M263.221,231.591H248.79c-4.719,0-8.545,3.826-8.545,8.545c0,4.719,3.826,8.545,8.545,8.545h14.431
			c4.72,0,8.545-3.826,8.545-8.545C271.766,235.417,267.941,231.591,263.221,231.591z"/>
	</g>
</g>
<g>
</g>
<g>
</g>
<g>
</g>
<g>
</g>
<g>
</g>
<g>
</g>
<g>
</g>
<g>
</g>
<g>
</g>
<g>
</g>
<g>
</g>
<g>
</g>
<g>
</g>
<g>
</g>
<g>
</g>
</svg>
